<?xml version="1.0" standalone="no"?>
<!DOCTYPE svg PUBLIC "-//W3C//DTD SVG 20010904//EN"
 "http://www.w3.org/TR/2001/REC-SVG-20010904/DTD/svg10.dtd">
<svg version="1.0" xmlns="http://www.w3.org/2000/svg"
 width="512.000000pt" height="512.000000pt" viewBox="0 0 512.000000 512.000000"
 preserveAspectRatio="xMidYMid meet">

<g transform="translate(0.000000,512.000000) scale(0.100000,-0.100000)"
fill="#000000" stroke="none">
<path d="M2304 4180 c-33 -5 -86 -16 -118 -25 -57 -17 -58 -17 -72 4 -49 70
-240 -53 -328 -211 -19 -35 -47 -103 -62 -153 -23 -78 -27 -113 -31 -260 -5
-150 -2 -191 22 -350 45 -302 103 -444 234 -576 116 -116 220 -156 385 -146
110 6 182 31 266 93 100 73 195 221 240 374 45 154 72 389 74 630 0 178 -7
212 -60 293 -19 29 -22 42 -14 57 20 36 11 65 -32 107 -129 124 -323 187 -504
163z m51 -531 c61 0 146 7 190 16 80 15 80 15 99 -7 100 -120 143 -471 83
-671 -59 -192 -143 -309 -265 -369 -61 -30 -74 -33 -162 -33 -88 0 -101 3
-162 33 -125 61 -223 206 -269 397 -35 147 -24 282 37 484 53 175 96 204 254
168 56 -12 123 -18 195 -18z"/>
<path d="M1825 2434 c-33 -18 -85 -41 -115 -50 -76 -22 -206 -84 -276 -131
-133 -91 -262 -250 -325 -402 -37 -89 -69 -233 -69 -312 0 -89 -1 -89 243 -89
l207 0 0 175 c0 162 2 177 20 195 26 26 51 25 84 -1 l26 -20 0 -175 0 -174
584 0 583 0 6 88 c19 269 165 495 395 609 39 20 72 37 72 39 0 7 -148 107
-191 129 -25 13 -92 40 -150 59 -57 20 -126 50 -152 66 l-48 30 -67 -45 c-37
-24 -103 -56 -147 -71 -70 -24 -95 -28 -200 -28 -105 0 -130 4 -203 29 -45 15
-112 47 -147 71 -36 24 -66 44 -68 43 -1 0 -29 -16 -62 -35z"/>
<path d="M3410 2080 c-212 -41 -376 -180 -452 -386 -33 -87 -33 -271 0 -366
59 -171 207 -314 382 -369 85 -27 231 -29 314 -5 202 59 360 221 411 421 18
69 20 182 4 257 -39 188 -190 359 -376 423 -78 28 -211 39 -283 25z m287 -442
c93 -91 105 -110 91 -148 -11 -31 -133 -156 -171 -176 -59 -31 -119 37 -85 96
l16 29 -150 3 c-167 3 -178 8 -178 74 0 56 23 64 194 64 l149 0 -21 23 c-29
30 -28 62 3 92 39 40 60 32 152 -57z"/>
</g>
</svg>
